<svg xmlns="http://www.w3.org/2000/svg" width="25" height="25" viewBox="0 0 25 25">
  <g id="LinkedIn_Logo" transform="translate(-797.13 -287.426)">
    <path id="Path_26" data-name="Path 26" d="M818.432,308.727h-3.7v-5.8c0-1.383-.025-3.164-1.927-3.164-1.929,0-2.225,1.507-2.225,3.063v5.9h-3.7V296.8h3.556v1.63h.05a3.9,3.9,0,0,1,3.509-1.927c3.754,0,4.447,2.469,4.447,5.682Zm-15.739-13.561h0a2.15,2.15,0,1,1,2.15-2.15h0a2.16,2.16,0,0,1-2.149,2.15m1.852,13.561h-3.708V296.8h3.708Zm15.734-21.3h-21.3a1.833,1.833,0,0,0-1.845,1.8v21.392a1.834,1.834,0,0,0,1.845,1.8h21.3a1.837,1.837,0,0,0,1.852-1.8V289.228a1.836,1.836,0,0,0-1.852-1.8" fill="#141712"/>
  </g>
</svg>
