<svg xmlns="http://www.w3.org/2000/svg" width="25" height="25" viewBox="0 0 25 25">
  <path id="search-con" d="M29.472,30.95,20.34,21.818a7.652,7.652,0,0,1-2.431,1.406,8.593,8.593,0,0,1-2.951.5,8.645,8.645,0,0,1-6.354-2.6A8.564,8.564,0,0,1,6,14.839,8.564,8.564,0,0,1,8.6,8.554a8.6,8.6,0,0,1,6.319-2.6,8.507,8.507,0,0,1,6.267,2.6,8.593,8.593,0,0,1,2.587,6.285,8.661,8.661,0,0,1-.486,2.882,8.813,8.813,0,0,1-1.458,2.6L31,29.422ZM14.924,21.644a6.5,6.5,0,0,0,4.792-2,6.584,6.584,0,0,0,1.979-4.809,6.584,6.584,0,0,0-1.979-4.809,6.5,6.5,0,0,0-4.792-2,6.6,6.6,0,0,0-4.844,2,6.555,6.555,0,0,0-2,4.809,6.555,6.555,0,0,0,2,4.809A6.6,6.6,0,0,0,14.924,21.644Z" transform="translate(-6 -5.95)" fill="#21409a"/>
</svg>
