<svg xmlns="http://www.w3.org/2000/svg" width="35.697" height="25" viewBox="0 0 35.697 25">
  <g id="YouTube_Logo_2017" transform="translate(-1.817 -0.4)">
    <path id="Path_27" data-name="Path 27" d="M36.726,4.315a4.487,4.487,0,0,0-3.159-3.159C30.8.4,19.647.4,19.647.4S8.5.423,5.728,1.178A4.487,4.487,0,0,0,2.568,4.338C1.73,9.26,1.405,16.76,2.591,21.485a4.487,4.487,0,0,0,3.159,3.159c2.77.755,13.919.755,13.919.755s11.149,0,13.919-.755a4.487,4.487,0,0,0,3.159-3.159C37.633,16.556,37.9,9.061,36.726,4.315Z" fill="#141712"/>
    <path id="Path_28" data-name="Path 28" d="M64.2,42.314l9.249-5.357L64.2,31.6Z" transform="translate(-48.101 -24.057)" fill="#fff"/>
  </g>
</svg>
