<svg xmlns="http://www.w3.org/2000/svg" width="79.007" height="94.706" viewBox="0 0 79.007 94.706">
  <g id="logo-1" transform="translate(0 -0.001)">
    <g id="Group_263" data-name="Group 263" transform="translate(0 0.001)">
      <g id="Group_261" data-name="Group 261" transform="translate(0.384)">
        <path id="Path_25" data-name="Path 25" d="M22.73,0,36.7,13.965H75.652V52.922L89.617,66.888V0Z" transform="translate(-10.994)" fill="#fff"/>
        <path id="Path_26" data-name="Path 26" d="M.73,26.18V90.838H65.388v-25.7L26.431,26.18Zm52.341,55.2h-42.1V37.894h2.977V78.409H53.071v2.977Z" transform="translate(-0.73 -12.215)" fill="#fff"/>
      </g>
      <g id="Group_262" data-name="Group 262" transform="translate(0 87.217)">
        <path id="Path_27" data-name="Path 27" d="M5.6,169.394a.211.211,0,0,1,.149.064l.389.427a3.118,3.118,0,0,1-1.094.811,3.757,3.757,0,0,1-1.547.293,3.641,3.641,0,0,1-1.435-.272,3.1,3.1,0,0,1-1.1-.768,3.459,3.459,0,0,1-.7-1.184,4.455,4.455,0,0,1-.251-1.52,4.233,4.233,0,0,1,.267-1.52,3.5,3.5,0,0,1,.757-1.184,3.353,3.353,0,0,1,1.163-.768,3.98,3.98,0,0,1,1.494-.272,3.529,3.529,0,0,1,1.392.251,3.483,3.483,0,0,1,1.04.683l-.32.453a.41.41,0,0,1-.08.085A.235.235,0,0,1,5.59,165a.256.256,0,0,1-.139-.048c-.048-.032-.107-.075-.176-.123s-.149-.1-.24-.155a2.325,2.325,0,0,0-.325-.155,3.148,3.148,0,0,0-.437-.123,3.06,3.06,0,0,0-.576-.048,2.81,2.81,0,0,0-1.078.2,2.374,2.374,0,0,0-.843.576,2.689,2.689,0,0,0-.549.912,3.413,3.413,0,0,0-.2,1.2,3.536,3.536,0,0,0,.2,1.222,2.677,2.677,0,0,0,.539.907,2.252,2.252,0,0,0,.805.565,2.6,2.6,0,0,0,1,.192,3.88,3.88,0,0,0,.587-.037,2.23,2.23,0,0,0,.485-.123,1.9,1.9,0,0,0,.416-.208,3.123,3.123,0,0,0,.384-.3.244.244,0,0,1,.171-.075Z" transform="translate(-0.01 -163.5)" fill="#fff"/>
        <path id="Path_28" data-name="Path 28" d="M25.178,167.245a4.173,4.173,0,0,1-.261,1.51,3.529,3.529,0,0,1-.736,1.184,3.265,3.265,0,0,1-1.142.768,4.134,4.134,0,0,1-2.95,0,3.315,3.315,0,0,1-1.142-.768,3.447,3.447,0,0,1-.736-1.184,4.49,4.49,0,0,1,0-3.019,3.53,3.53,0,0,1,.736-1.184,3.279,3.279,0,0,1,1.142-.773,3.752,3.752,0,0,1,1.472-.277,3.8,3.8,0,0,1,1.478.277,3.353,3.353,0,0,1,1.142.773,3.53,3.53,0,0,1,.736,1.184A4.174,4.174,0,0,1,25.178,167.245Zm-1.019,0a3.723,3.723,0,0,0-.187-1.211,2.565,2.565,0,0,0-.523-.907,2.279,2.279,0,0,0-.816-.571,3,3,0,0,0-2.139,0,2.347,2.347,0,0,0-.821.571,2.565,2.565,0,0,0-.523.907,4.133,4.133,0,0,0,0,2.422,2.613,2.613,0,0,0,.523.907,2.267,2.267,0,0,0,.821.565,2.857,2.857,0,0,0,1.067.2,2.782,2.782,0,0,0,1.072-.2,2.267,2.267,0,0,0,.816-.565,2.565,2.565,0,0,0,.523-.907A3.7,3.7,0,0,0,24.159,167.245Z" transform="translate(-8.38 -163.5)" fill="#fff"/>
        <path id="Path_29" data-name="Path 29" d="M42.559,168.58c.037.091.069.181.107.272.032-.1.069-.187.107-.272s.08-.176.128-.261l2.48-4.508a.279.279,0,0,1,.139-.144.665.665,0,0,1,.2-.027h.731v7.329h-.869v-5.617c0-.08.011-.165.016-.251l-2.512,4.582a.389.389,0,0,1-.357.229h-.144a.389.389,0,0,1-.357-.229l-2.566-4.6c.011.091.016.176.021.261s.005.165.005.235v5.388H38.82V163.64h.731a.64.64,0,0,1,.2.027.279.279,0,0,1,.139.144l2.534,4.513a1.415,1.415,0,0,1,.123.256Z" transform="translate(-18.117 -163.565)" fill="#fff"/>
        <path id="Path_30" data-name="Path 30" d="M62.447,168.238v2.742H61.46V163.65h2.166a4.112,4.112,0,0,1,1.211.16,2.375,2.375,0,0,1,.854.459,1.816,1.816,0,0,1,.5.715,2.487,2.487,0,0,1,.165.934,2.313,2.313,0,0,1-.181.934,1.981,1.981,0,0,1-.523.731,2.517,2.517,0,0,1-.859.48,3.749,3.749,0,0,1-1.174.171H62.442Zm0-.789h1.179a2.269,2.269,0,0,0,.747-.112,1.508,1.508,0,0,0,.544-.315,1.29,1.29,0,0,0,.331-.485,1.658,1.658,0,0,0,.112-.619,1.4,1.4,0,0,0-.432-1.094,1.9,1.9,0,0,0-1.307-.395H62.442v3.019Z" transform="translate(-28.68 -163.57)" fill="#fff"/>
        <path id="Path_31" data-name="Path 31" d="M81.751,170.979h-.768a.328.328,0,0,1-.213-.064.4.4,0,0,1-.123-.171l-.688-1.771H76.667l-.683,1.771a.4.4,0,0,1-.123.165.321.321,0,0,1-.213.069H74.88l2.929-7.329h1.008l2.929,7.329Zm-4.8-2.721h2.737l-1.152-2.982a5.3,5.3,0,0,1-.219-.688q-.056.208-.112.384c-.037.117-.069.219-.107.309l-1.152,2.977Z" transform="translate(-34.942 -163.57)" fill="#fff"/>
        <path id="Path_32" data-name="Path 32" d="M95,163.677a.527.527,0,0,1,.144.133l4.246,5.526c-.011-.091-.016-.176-.021-.256v-5.436h.869v7.329h-.5a.432.432,0,0,1-.2-.043.462.462,0,0,1-.155-.139l-4.241-5.521c.005.085.011.171.016.251v5.446h-.87V163.64H94.8a.457.457,0,0,1,.2.032Z" transform="translate(-43.998 -163.565)" fill="#fff"/>
        <path id="Path_33" data-name="Path 33" d="M115.66,168.061v2.918h-.987v-2.918l-2.683-4.411h.869a.3.3,0,0,1,.208.064.586.586,0,0,1,.133.165l1.675,2.849a2.5,2.5,0,0,1,.171.336c.048.107.085.208.128.309.037-.107.08-.213.123-.315a2.175,2.175,0,0,1,.171-.331l1.675-2.849a.823.823,0,0,1,.123-.155.3.3,0,0,1,.208-.075h.88l-2.689,4.411Z" transform="translate(-52.256 -163.57)" fill="#fff"/>
      </g>
    </g>
  </g>
</svg>
