<svg xmlns="http://www.w3.org/2000/svg" width="119.474" height="85.19" viewBox="0 0 119.474 85.19">
  <g id="logo-2" transform="translate(0 -0.001)">
    <g id="Group_265" data-name="Group 265" transform="translate(0 0.001)">
      <rect id="Rectangle_188" data-name="Rectangle 188" width="16.19" height="16.19" rx="8.095" transform="translate(16.403 26.01)" fill="#fff"/>
      <path id="Path_34" data-name="Path 34" d="M116.926,23.423A23.492,23.492,0,0,0,93.5,0h0A23.492,23.492,0,0,0,70.08,23.423h0V57.654s46.841-5.217,46.846-34.225h0Z" transform="translate(-32.697)" fill="#fff"/>
      <path id="Path_35" data-name="Path 35" d="M0,108.317H0a16.347,16.347,0,0,0,16.3,16.3h0a16.346,16.346,0,0,0,16.3-16.3h0V84.51S0,88.137,0,108.317ZM16.3,112.6a4.283,4.283,0,1,1,4.283-4.283A4.294,4.294,0,0,1,16.3,112.6Z" transform="translate(0 -39.429)" fill="#fff"/>
      <g id="Group_264" data-name="Group 264" transform="translate(37.666 64.764)">
        <path id="Path_36" data-name="Path 36" d="M73.384,131.668a5.178,5.178,0,0,1-2.038-1.958,5.72,5.72,0,0,1,.011-5.633,5.279,5.279,0,0,1,2.048-1.958,6.034,6.034,0,0,1,2.913-.709,6.1,6.1,0,0,1,2.39.459,4.878,4.878,0,0,1,1.824,1.323l-1.28,1.2a3.73,3.73,0,0,0-2.849-1.248,3.978,3.978,0,0,0-1.963.48,3.464,3.464,0,0,0-1.355,1.334,4.083,4.083,0,0,0,0,3.862,3.464,3.464,0,0,0,1.355,1.334,3.978,3.978,0,0,0,1.963.48,3.716,3.716,0,0,0,2.849-1.264l1.28,1.216a4.873,4.873,0,0,1-1.835,1.323,6.143,6.143,0,0,1-2.4.459,5.946,5.946,0,0,1-2.913-.709Z" transform="translate(-70.61 -121.41)" fill="#fff"/>
        <path id="Path_37" data-name="Path 37" d="M93.721,131.677a5.2,5.2,0,0,1-2.054-1.963,5.4,5.4,0,0,1-.747-2.806,5.335,5.335,0,0,1,.747-2.806,5.2,5.2,0,0,1,2.054-1.963,6.443,6.443,0,0,1,5.878,0,5.22,5.22,0,0,1,2.054,1.958,5.685,5.685,0,0,1,0,5.633,5.294,5.294,0,0,1-2.054,1.958,6.443,6.443,0,0,1-5.878,0Zm4.854-1.5a3.473,3.473,0,0,0,1.339-1.339,4.062,4.062,0,0,0,0-3.851,3.509,3.509,0,0,0-1.339-1.339,4.07,4.07,0,0,0-3.835,0,3.473,3.473,0,0,0-1.339,1.339,4.062,4.062,0,0,0,0,3.851,3.473,3.473,0,0,0,1.339,1.339,4.07,4.07,0,0,0,3.835,0Z" transform="translate(-80.086 -121.419)" fill="#fff"/>
        <path id="Path_38" data-name="Path 38" d="M126.159,132.373l-.016-7.063-3.5,5.846h-.885l-3.5-5.756v6.972H116.37V121.72H118l4.23,7.063,4.155-7.063h1.627l.016,10.653h-1.872Z" transform="translate(-91.96 -121.555)" fill="#fff"/>
        <path id="Path_39" data-name="Path 39" d="M150.416,122.173a3.512,3.512,0,0,1,1.574,1.307,3.693,3.693,0,0,1,.549,2.027,3.612,3.612,0,0,1-.549,2.016,3.467,3.467,0,0,1-1.574,1.318A5.892,5.892,0,0,1,148,129.3H145.6v3.073H143.62V121.72H148a5.892,5.892,0,0,1,2.411.459Zm-.539,4.9a2.178,2.178,0,0,0,0-3.137,3.053,3.053,0,0,0-1.963-.549H145.6v4.23h2.315a3.022,3.022,0,0,0,1.963-.549Z" transform="translate(-104.674 -121.555)" fill="#fff"/>
        <path id="Path_40" data-name="Path 40" d="M168.638,129.9h-5.329l-1.051,2.464H160.22l4.8-10.653h1.947l4.812,10.653H169.7Zm-.656-1.552-2.011-4.657-2,4.657h4Z" transform="translate(-112.419 -121.55)" fill="#fff"/>
        <path id="Path_41" data-name="Path 41" d="M193.893,121.71v10.653h-1.627l-5.873-7.217v7.217H184.43V121.71h1.627l5.873,7.217V121.71Z" transform="translate(-123.714 -121.55)" fill="#fff"/>
        <path id="Path_42" data-name="Path 42" d="M210.757,128.612v3.761h-1.979v-3.729l-4.187-6.924h2.118l3.121,5.19,3.153-5.19h1.947l-4.171,6.9Z" transform="translate(-133.12 -121.555)" fill="#fff"/>
      </g>
    </g>
  </g>
</svg>
