<svg xmlns="http://www.w3.org/2000/svg" width="147.276" height="79.893" viewBox="0 0 147.276 79.893">
  <g id="logo-3" transform="translate(0 -0.001)">
    <g id="Group_269" data-name="Group 269" transform="translate(0 0.001)">
      <g id="Group_266" data-name="Group 266" transform="translate(73.513 23.765)">
        <path id="Path_43" data-name="Path 43" d="M138.765,58.329a5.966,5.966,0,0,1-.955-3.617V49.468a6.032,6.032,0,0,1,.944-3.665,4.851,4.851,0,0,1,6.316-.165,4.79,4.79,0,0,1,.907,3.137v1.232H143.4v-1.27a7.336,7.336,0,0,0-.075-1.222,1.21,1.21,0,0,0-.373-.725,1.329,1.329,0,0,0-.934-.283,1.449,1.449,0,0,0-.982.3,1.426,1.426,0,0,0-.427.8,7,7,0,0,0-.1,1.3v6.364a3.708,3.708,0,0,0,.325,1.8,1.253,1.253,0,0,0,1.179.555,1.287,1.287,0,0,0,.918-.288,1.348,1.348,0,0,0,.379-.768,8.133,8.133,0,0,0,.08-1.28V53.965h2.576v1.179a5.343,5.343,0,0,1-.891,3.291,3.644,3.644,0,0,1-3.083,1.168,3.856,3.856,0,0,1-3.238-1.28Z" transform="translate(-137.81 -44.55)" fill="#fff"/>
        <path id="Path_44" data-name="Path 44" d="M158.852,58.382a5.651,5.651,0,0,1-.982-3.585V49.282a5.471,5.471,0,0,1,.982-3.537,5.035,5.035,0,0,1,6.513,0,5.5,5.5,0,0,1,.982,3.537V54.8a5.626,5.626,0,0,1-.987,3.574,3.916,3.916,0,0,1-3.238,1.232,3.989,3.989,0,0,1-3.265-1.222Zm4.46-1.318a3.49,3.49,0,0,0,.309-1.632V48.668a3.47,3.47,0,0,0-.3-1.616,1.25,1.25,0,0,0-1.206-.544,1.274,1.274,0,0,0-1.216.555,3.32,3.32,0,0,0-.309,1.606v6.764a3.424,3.424,0,0,0,.309,1.632,1.261,1.261,0,0,0,1.216.56A1.22,1.22,0,0,0,163.311,57.064Z" transform="translate(-147.169 -44.55)" fill="#fff"/>
        <path id="Path_45" data-name="Path 45" d="M179.351,44.86h2.774l2.086,10.173,2.16-10.173h2.7l.272,14.691h-2l-.219-10.21-2.086,10.21h-1.616L181.308,49.3l-.2,10.247H179.1l.256-14.691Z" transform="translate(-157.074 -44.695)" fill="#fff"/>
        <path id="Path_46" data-name="Path 46" d="M204.08,44.86H208.4q3.753,0,3.755,4.171c0,2.779-1.312,3.99-3.937,3.99h-1.467v6.529H204.08Zm3.7,6.273a1.833,1.833,0,0,0,1.467-.464,2.669,2.669,0,0,0,.379-1.659,5.3,5.3,0,0,0-.128-1.334,1.137,1.137,0,0,0-.517-.7,2.427,2.427,0,0,0-1.206-.235h-1.035v4.39h1.035Z" transform="translate(-168.729 -44.695)" fill="#fff"/>
        <path id="Path_47" data-name="Path 47" d="M223.819,44.86h2.865l2.939,14.691h-2.486l-.581-3.393H224l-.6,3.393H220.88Zm2.448,9.6-1-6.167-1,6.167Z" transform="translate(-176.568 -44.695)" fill="#fff"/>
        <path id="Path_48" data-name="Path 48" d="M241.72,44.86h1.867l3.574,8.38V44.86h2.214V59.551H247.6l-3.59-8.78v8.78h-2.283V44.86Z" transform="translate(-186.291 -44.695)" fill="#fff"/>
        <path id="Path_49" data-name="Path 49" d="M263.187,53.954,260.21,44.87h2.5l1.814,5.82,1.707-5.82h2.448l-2.939,9.084v5.606h-2.555Z" transform="translate(-194.918 -44.699)" fill="#fff"/>
      </g>
      <g id="Group_267" data-name="Group 267" transform="translate(73.31 44.974)">
        <path id="Path_50" data-name="Path 50" d="M142.706,84.44v.768h-2.176v5.969h-.912V85.208H137.43V84.44Z" transform="translate(-137.43 -84.371)" fill="#fff"/>
        <path id="Path_51" data-name="Path 51" d="M154.591,91.177h-.7a.321.321,0,0,1-.2-.059.413.413,0,0,1-.112-.155l-.629-1.627h-3.025l-.629,1.627a.336.336,0,0,1-.112.149.3.3,0,0,1-.2.064h-.7l2.694-6.737h.928l2.694,6.737Zm-4.417-2.5h2.512l-1.056-2.742a5.645,5.645,0,0,1-.2-.635c-.032.128-.069.245-.1.352s-.064.2-.1.283l-1.056,2.737Z" transform="translate(-142.492 -84.371)" fill="#fff"/>
        <path id="Path_52" data-name="Path 52" d="M165.763,90.455a4.826,4.826,0,0,0,.5-.027,2.811,2.811,0,0,0,.432-.08,2.622,2.622,0,0,0,.379-.123c.117-.048.24-.107.357-.165V88.577h-1.046a.193.193,0,0,1-.144-.053.158.158,0,0,1-.053-.128v-.517h2.07v2.587a3.627,3.627,0,0,1-1.115.549,4.817,4.817,0,0,1-.672.139,5.879,5.879,0,0,1-.773.043,3.528,3.528,0,0,1-1.344-.251,3.037,3.037,0,0,1-1.051-.7,3.264,3.264,0,0,1-.688-1.088,3.808,3.808,0,0,1-.245-1.4,3.952,3.952,0,0,1,.24-1.4,3.1,3.1,0,0,1,.688-1.088,3.045,3.045,0,0,1,1.088-.7,3.913,3.913,0,0,1,1.424-.251,4.594,4.594,0,0,1,.741.059,3.153,3.153,0,0,1,.635.171,3.223,3.223,0,0,1,.544.267,2.986,2.986,0,0,1,.464.357l-.256.416a.239.239,0,0,1-.208.128.315.315,0,0,1-.165-.053c-.08-.043-.165-.1-.261-.16a2.016,2.016,0,0,0-.357-.181,2.992,2.992,0,0,0-.491-.149,3.12,3.12,0,0,0-.672-.059,2.764,2.764,0,0,0-1.03.187,2.072,2.072,0,0,0-.784.533,2.227,2.227,0,0,0-.5.838,3.24,3.24,0,0,0-.176,1.1,3.372,3.372,0,0,0,.181,1.142,2.33,2.33,0,0,0,.512.848,2.254,2.254,0,0,0,.779.533,2.615,2.615,0,0,0,1,.181Z" transform="translate(-149.066 -84.31)" fill="#fff"/>
        <path id="Path_53" data-name="Path 53" d="M183.872,90.409h2.913v.768H182.96V84.44h.912Z" transform="translate(-158.673 -84.371)" fill="#fff"/>
        <path id="Path_54" data-name="Path 54" d="M195.012,91.177H194.1V84.44h.912Z" transform="translate(-163.87 -84.371)" fill="#fff"/>
        <path id="Path_55" data-name="Path 55" d="M201.6,84.472a.534.534,0,0,1,.133.123l3.9,5.078c-.011-.08-.016-.16-.021-.24V84.44h.8v6.737h-.459a.366.366,0,0,1-.181-.037.518.518,0,0,1-.144-.128l-3.9-5.073c.005.08.011.155.016.229v5.009h-.8V84.44h.469a.393.393,0,0,1,.181.032Z" transform="translate(-167.062 -84.371)" fill="#fff"/>
        <path id="Path_56" data-name="Path 56" d="M220.19,84.435v.741h-3.233v2.235h2.619v.715h-2.619v2.3h3.233v.741h-4.15V84.43h4.15Z" transform="translate(-174.107 -84.366)" fill="#fff"/>
      </g>
      <g id="Group_268" data-name="Group 268">
        <path id="Path_57" data-name="Path 57" d="M42.358,3.435l40.5,11.512v40.3l-40.5-11.512V3.435M39.76,0V45.7l45.7,12.984v-45.7L39.76,0Z" transform="translate(-18.551)" fill="#fff"/>
        <path id="Path_58" data-name="Path 58" d="M45.7,98.443,0,85.454V39.76L45.7,52.744Z" transform="translate(0 -18.551)" fill="#fff"/>
        <path id="Path_59" data-name="Path 59" d="M21.967,2.918,61.943,14.275l-17,17L4.961,19.919l17.006-17M21.209,0,0,21.209,45.7,34.193,66.9,12.984,21.209,0h0Z" fill="#fff"/>
        <path id="Path_60" data-name="Path 60" d="M90.49,124.015l18.633-18.638-18.633-5.3Z" transform="translate(-42.219 -46.694)" fill="#fff"/>
      </g>
    </g>
  </g>
</svg>
