<svg xmlns="http://www.w3.org/2000/svg" width="93.837" height="95.73" viewBox="0 0 93.837 95.73">
  <g id="logo-4" transform="translate(0 -0.001)">
    <g id="Group_273" data-name="Group 273" transform="translate(0 0.001)">
      <g id="Group_270" data-name="Group 270" transform="translate(3.942 85.889)">
        <path id="Path_61" data-name="Path 61" d="M11.535,169.081a2.746,2.746,0,0,0,.629-.059,2.117,2.117,0,0,0,.459-.144,1.685,1.685,0,0,0,.325-.187c.085-.069.165-.133.24-.187s.139-.107.2-.144a.379.379,0,0,1,.2-.053.358.358,0,0,1,.176.037.335.335,0,0,1,.1.08l.752.907a4.143,4.143,0,0,1-1.488,1.131,4.767,4.767,0,0,1-1.958.384,3.868,3.868,0,0,1-1.616-.32,3.376,3.376,0,0,1-1.184-.88,3.8,3.8,0,0,1-.731-1.334,5.378,5.378,0,0,1-.245-1.659,6.511,6.511,0,0,1,.187-1.568A5.894,5.894,0,0,1,8.1,163.72a5.387,5.387,0,0,1,.811-1.131,4.941,4.941,0,0,1,2.283-1.392,4.911,4.911,0,0,1,1.382-.187,4.351,4.351,0,0,1,.987.1,3.761,3.761,0,0,1,.805.283,3.246,3.246,0,0,1,.645.432,3.055,3.055,0,0,1,.5.555l-.752.869a.8.8,0,0,1-.187.165.487.487,0,0,1-.277.075.372.372,0,0,1-.2-.053,1.943,1.943,0,0,1-.187-.128c-.064-.053-.133-.107-.213-.171a1.589,1.589,0,0,0-.283-.171,2.019,2.019,0,0,0-.395-.128,2.271,2.271,0,0,0-.539-.053,2.531,2.531,0,0,0-1.131.256,2.627,2.627,0,0,0-.912.736,3.581,3.581,0,0,0-.6,1.163,5.052,5.052,0,0,0-.219,1.531,3.676,3.676,0,0,0,.149,1.1,2.655,2.655,0,0,0,.405.816,1.718,1.718,0,0,0,1.387.683Z" transform="translate(-7.39 -161.01)" fill="#fff"/>
        <path id="Path_62" data-name="Path 62" d="M37.587,165.32a5.939,5.939,0,0,1-.693,2.822,5.261,5.261,0,0,1-.805,1.115,4.813,4.813,0,0,1-1.062.853,5.265,5.265,0,0,1-2.721.747,4.149,4.149,0,0,1-1.707-.336,3.858,3.858,0,0,1-1.286-.912,3.963,3.963,0,0,1-.811-1.36,4.969,4.969,0,0,1-.283-1.686,5.982,5.982,0,0,1,.693-2.827,5.1,5.1,0,0,1,.811-1.115,4.94,4.94,0,0,1,1.062-.854,5.265,5.265,0,0,1,2.726-.747,4.159,4.159,0,0,1,1.7.336,3.674,3.674,0,0,1,1.28.918,4.025,4.025,0,0,1,.805,1.366,4.991,4.991,0,0,1,.283,1.686Zm-2.208.053a3.763,3.763,0,0,0-.144-1.078,2.438,2.438,0,0,0-.416-.832,1.822,1.822,0,0,0-.672-.533,2.027,2.027,0,0,0-.9-.187,2.532,2.532,0,0,0-1.184.272,2.6,2.6,0,0,0-.891.768,3.54,3.54,0,0,0-.56,1.195,5.8,5.8,0,0,0-.2,1.542,3.967,3.967,0,0,0,.139,1.078,2.444,2.444,0,0,0,.405.827,1.816,1.816,0,0,0,.667.533,2.042,2.042,0,0,0,.907.187,2.517,2.517,0,0,0,1.184-.272,2.557,2.557,0,0,0,.891-.768,3.674,3.674,0,0,0,.565-1.19,5.566,5.566,0,0,0,.2-1.542Z" transform="translate(-17.109 -161.015)" fill="#fff"/>
        <path id="Path_63" data-name="Path 63" d="M57.9,167.467c.069-.144.144-.288.219-.427s.155-.283.24-.421l2.945-5.068a.552.552,0,0,1,.331-.277,1.416,1.416,0,0,1,.384-.053h1.691l-1.19,9.623H60.632l.672-5.6c.016-.117.032-.251.064-.395s.059-.293.1-.448l-2.891,4.966a.9.9,0,0,1-.341.336.96.96,0,0,1-.464.107h-.288a.834.834,0,0,1-.437-.112.6.6,0,0,1-.261-.331l-1.691-4.982c-.011.149-.016.293-.021.437s-.016.267-.032.384l-.661,5.633h-1.9l1.19-9.618h1.883a.507.507,0,0,1,.187.032.427.427,0,0,1,.144.1.463.463,0,0,1,.1.192l1.691,5.073c.091.277.171.56.24.854Z" transform="translate(-28.423 -161.108)" fill="#fff"/>
        <path id="Path_64" data-name="Path 64" d="M82.644,167.6l-.395,3.243H80.11l1.179-9.623h3.185a4.622,4.622,0,0,1,1.472.208,2.739,2.739,0,0,1,1,.576,2.24,2.24,0,0,1,.576.864,3.059,3.059,0,0,1,.187,1.072,4.3,4.3,0,0,1-.24,1.456,3.028,3.028,0,0,1-.736,1.158,3.462,3.462,0,0,1-1.254.768,5.2,5.2,0,0,1-1.8.277h-1.03Zm.6-4.774-.389,3.158h1.035a1.934,1.934,0,0,0,.773-.133,1.325,1.325,0,0,0,.512-.384,1.607,1.607,0,0,0,.283-.592,3.034,3.034,0,0,0,.085-.752,1.82,1.82,0,0,0-.075-.523,1.038,1.038,0,0,0-.635-.677,1.541,1.541,0,0,0-.571-.1Z" transform="translate(-41.319 -161.108)" fill="#fff"/>
        <path id="Path_65" data-name="Path 65" d="M106.3,170.843h-1.664a.732.732,0,0,1-.448-.128.507.507,0,0,1-.2-.341l-.3-1.728h-3.27l-.715,1.728a.707.707,0,0,1-.283.325.813.813,0,0,1-.469.144H97.26l4.6-9.623h2.208l2.235,9.623Zm-5.276-3.665h2.416l-.469-2.747c-.043-.229-.085-.459-.128-.7s-.085-.448-.117-.645c-.037.107-.08.224-.139.357s-.112.267-.171.395-.107.245-.16.357-.085.192-.107.245l-1.131,2.737Z" transform="translate(-49.32 -161.108)" fill="#fff"/>
        <path id="Path_66" data-name="Path 66" d="M123.976,161.235a.425.425,0,0,1,.171.048.491.491,0,0,1,.133.1.945.945,0,0,1,.117.171l3.377,5.948c.011-.155.021-.3.037-.443s.032-.272.048-.395l.645-5.436h1.9l-1.19,9.623h-1.126a1.055,1.055,0,0,1-.416-.075.653.653,0,0,1-.283-.283l-3.361-5.937c-.011.123-.021.24-.027.357s-.021.224-.032.325l-.661,5.617h-1.9l1.19-9.623h1.136a1.542,1.542,0,0,1,.235.011Z" transform="translate(-60.588 -161.113)" fill="#fff"/>
        <path id="Path_67" data-name="Path 67" d="M150.155,167.157l-.453,3.686h-2.155l.459-3.665-2.475-5.958h1.915a.653.653,0,0,1,.432.128.707.707,0,0,1,.229.341l.923,2.913c.064.192.117.379.171.56s.091.352.128.523c.085-.165.176-.341.277-.517s.208-.368.325-.565l1.638-2.913a1.024,1.024,0,0,1,.288-.325.752.752,0,0,1,.464-.144H154.1l-3.942,5.937Z" transform="translate(-71.841 -161.108)" fill="#fff"/>
      </g>
      <g id="Group_272" data-name="Group 272">
        <g id="Group_271" data-name="Group 271" transform="translate(33.862 22.25)">
          <path id="Path_68" data-name="Path 68" d="M133.261,95.267,103.272,41.71,84.5,75.242,95.713,95.267Z" transform="translate(-73.287 -41.71)" fill="#fff"/>
          <path id="Path_69" data-name="Path 69" d="M81.958,127.679l-9.239-16.5-9.239,16.5Z" transform="translate(-63.48 -74.122)" fill="#fff"/>
        </g>
        <path id="Path_70" data-name="Path 70" d="M42.152,0,0,75.807H29.5L56.9,26.341Z" fill="#fff"/>
      </g>
    </g>
  </g>
</svg>
